<?xml version="1.0" encoding="UTF-8" standalone="no"?>
<svg
   xmlns:dc="http://purl.org/dc/elements/1.1/"
   xmlns:cc="http://creativecommons.org/ns#"
   xmlns:rdf="http://www.w3.org/1999/02/22-rdf-syntax-ns#"
   xmlns:svg="http://www.w3.org/2000/svg"
   xmlns="http://www.w3.org/2000/svg"
   xmlns:sodipodi="http://sodipodi.sourceforge.net/DTD/sodipodi-0.dtd"
   xmlns:inkscape="http://www.inkscape.org/namespaces/inkscape"
   height="20"
   viewBox="-21 -47 15.014663 14.999999"
   width="20"
   version="1.1"
   id="svg10"
   sodipodi:docname="comment.svg"
   inkscape:version="0.92.4 (5da689c313, 2019-01-14)">
  <metadata
     id="metadata16">
    <rdf:RDF>
      <cc:Work
         rdf:about="">
        <dc:format>image/svg+xml</dc:format>
        <dc:type
           rdf:resource="http://purl.org/dc/dcmitype/StillImage" />
        <dc:title></dc:title>
      </cc:Work>
    </rdf:RDF>
  </metadata>
  <defs
     id="defs14" />
  <sodipodi:namedview
     pagecolor="#ffffff"
     bordercolor="#666666"
     borderopacity="1"
     objecttolerance="10"
     gridtolerance="10"
     guidetolerance="10"
     inkscape:pageopacity="0"
     inkscape:pageshadow="2"
     inkscape:window-width="1920"
     inkscape:window-height="1025"
     id="namedview12"
     showgrid="false"
     units="px"
     inkscape:zoom="8.3049853"
     inkscape:cx="65.931499"
     inkscape:cy="19.673096"
     inkscape:window-x="1912"
     inkscape:window-y="-7"
     inkscape:window-maximized="1"
     inkscape:current-layer="svg10" />
  <path
     d="M -8.6496836,-45.970794 H -18.674642 c -1.048152,0 -1.900935,0.912261 -1.900935,2.033916 v 6.564246 c 0,1.11913 0.84907,2.029946 1.894184,2.033919 v 2.978773 l 4.000954,-2.978773 h 6.0307554 c 1.0481517,0 1.9009357,-0.912443 1.9009357,-2.033919 v -6.564246 c 0,-1.121655 -0.852784,-2.033916 -1.9009357,-2.033916 z m 1.0907699,8.598162 c 0,0.64345 -0.4893063,1.167078 -1.0907699,1.167078 H -14.93463 l -2.936597,2.186425 v -2.186425 h -0.803415 c -0.601464,0 -1.09077,-0.523628 -1.09077,-1.167078 v -6.564246 c 0,-0.643629 0.489306,-1.167075 1.09077,-1.167075 h 10.0249584 c 0.6014636,0 1.0907699,0.523446 1.0907699,1.167075 z m 0,0"
     id="path2"
     inkscape:connector-curvature="0"
     style="stroke-width:0.02234733" />
  <path
     d="m -16.874892,-42.907865 h 6.425459 v 0.866841 h -6.425459 z m 0,0"
     id="path4"
     inkscape:connector-curvature="0"
     style="stroke-width:0.02234733" />
  <path
     d="m -16.874892,-41.058603 h 6.425459 v 0.866841 h -6.425459 z m 0,0"
     id="path6"
     inkscape:connector-curvature="0"
     style="stroke-width:0.02234733" />
  <path
     d="m -16.874892,-39.209341 h 6.425459 v 0.866841 h -6.425459 z m 0,0"
     id="path8"
     inkscape:connector-curvature="0"
     style="stroke-width:0.02234733" />
</svg>
