<?xml version="1.0" encoding="UTF-8" standalone="no"?>
<!-- Generator: Adobe Illustrator 24.0.1, SVG Export Plug-In . SVG Version: 6.00 Build 0)  -->

<svg
   xmlns:dc="http://purl.org/dc/elements/1.1/"
   xmlns:cc="http://creativecommons.org/ns#"
   xmlns:rdf="http://www.w3.org/1999/02/22-rdf-syntax-ns#"
   xmlns:svg="http://www.w3.org/2000/svg"
   xmlns="http://www.w3.org/2000/svg"
   xmlns:sodipodi="http://sodipodi.sourceforge.net/DTD/sodipodi-0.dtd"
   xmlns:inkscape="http://www.inkscape.org/namespaces/inkscape"
   version="1.1"
   id="nasadanika"
   x="0px"
   y="0px"
   viewBox="0 0 32 32"
   xml:space="preserve"
   sodipodi:docname="courselogo16.svg"
   inkscape:version="0.92.4 (5da689c313, 2019-01-14)"
   width="32"
   height="32"><metadata
   id="metadata1602"><rdf:RDF><cc:Work
       rdf:about=""><dc:format>image/svg+xml</dc:format><dc:type
         rdf:resource="http://purl.org/dc/dcmitype/StillImage" /><dc:title></dc:title></cc:Work></rdf:RDF></metadata><defs
   id="defs1600">
	
	
	
	

	
	
	
	
	
	
	
	
</defs><sodipodi:namedview
   pagecolor="#ffffff"
   bordercolor="#666666"
   borderopacity="1"
   objecttolerance="10"
   gridtolerance="10"
   guidetolerance="10"
   inkscape:pageopacity="0"
   inkscape:pageshadow="2"
   inkscape:window-width="1920"
   inkscape:window-height="1025"
   id="namedview1598"
   showgrid="false"
   inkscape:zoom="37.255689"
   inkscape:cx="19.130888"
   inkscape:cy="5.7089313"
   inkscape:window-x="1912"
   inkscape:window-y="-7"
   inkscape:window-maximized="1"
   inkscape:current-layer="nasadanika" />
<style
   type="text/css"
   id="style1579">
	.st0{fill:#F2F2F2;}
	.st1{fill:#3BA1DA;}
	.st2{fill:none;}
</style>


<g
   id="g5328"
   transform="matrix(1.9323758,0,0,1.9318441,-73.258414,-10.951747)"><ellipse
     ry="7.9684834"
     rx="7.9687409"
     style="fill:#f2f2f2;stroke-width:0.03124944"
     id="circle1581"
     cy="13.976729"
     cx="46.111496"
     class="st0" /><path
     id="_x38_"
     class="st2"
     d="m 46.848996,17.350991 c -0.08969,0.588108 -0.261875,0.978096 -0.429999,1.358703 -0.129063,0.292179 -0.260313,0.590606 -0.355937,0.98247 0.21125,0.07971 0.362187,0.281867 0.362187,0.520922 v 1.371204 c 0.290937,-0.01183 0.577812,-0.03873 0.859374,-0.08254 0.04968,-0.235926 0.248749,-0.415608 0.494062,-0.438732 -0.005,-1.191496 -0.256875,-1.776165 -0.500937,-2.340836 -0.1675,-0.38686 -0.33875,-0.783409 -0.42875,-1.371202 z"
     inkscape:connector-curvature="0"
     style="fill:none;stroke:#692042;stroke-width:0.3023622;stroke-miterlimit:4;stroke-dasharray:none;stroke-opacity:1" /><path
     id="_x37_"
     class="st2"
     d="m 50.617117,7.8416219 -0.574999,0.574981 c -0.218125,0.2181175 -0.571562,0.2181175 -0.789687,0 l -0.01813,-0.018121 c -0.218125,-0.2181177 -0.218125,-0.5715437 0,-0.7896613 L 49.6218,7.2213315 C 49.047118,6.921654 48.430243,6.6932241 47.781806,6.547604 c 0.03875,0.1024966 0.06094,0.2134303 0.06094,0.3296764 v 1.0227784 c 0,0.5196701 -0.421249,0.9412184 -0.941249,0.9412184 h -1.580621 c -0.519687,0 -0.941249,-0.4212356 -0.941249,-0.9412184 V 6.8772801 c 0,-0.1162461 0.02219,-0.2268674 0.06094,-0.3296764 -3.397809,0.7637235 -5.945306,3.8036223 -5.945306,7.4291263 0,3.919246 2.976559,7.1557 6.787492,7.57006 V 20.2134 c 0,-0.308431 0.25,-0.558423 0.558437,-0.558423 h 0.02563 c 0.02437,0 0.04781,0.0038 0.07125,0.0067 0.09781,-0.400613 0.231875,-0.705604 0.36375,-1.004031 0.248124,-0.561229 0.482499,-1.091524 0.482499,-2.218363 h 3.13e-4 c 0,-0.0018 0,-0.0034 0,-0.0053 -0.284062,-0.02579 -0.507186,-0.261716 -0.507186,-0.552643 v -1.541824 c 0,-0.290927 0.223124,-0.526857 0.507186,-0.553106 v -0.558731 c -0.284062,-0.02625 -0.507186,-0.26218 -0.507186,-0.553107 v -0.212806 c 0,-0.308427 0.249999,-0.558418 0.558436,-0.558418 h 0.02563 c 0.308438,0 0.558437,0.249991 0.558437,0.558418 v 0.212806 c 0,0.290927 -0.223125,0.526858 -0.507187,0.553107 v 0.558731 c 0.284063,0.02625 0.507188,0.262179 0.507188,0.553106 v 1.541824 c 0,0.290927 -0.223125,0.526857 -0.507187,0.553106 9.36e-4,1.12246 0.234999,1.664006 0.4825,2.237113 0.249374,0.576542 0.506561,1.173399 0.511249,2.391482 0.156562,0.01438 0.292812,0.09378 0.385312,0.209681 3.139997,-0.939653 5.435931,-3.854247 5.435931,-7.296006 0,-2.514604 -1.225935,-4.7476544 -3.11062,-6.1351081 z m -9.985613,8.2269131 c 0,0.383112 -0.310625,0.693727 -0.69375,0.693727 h -0.03187 c -0.383124,0 -0.693749,-0.310615 -0.693749,-0.693727 v -1.915874 c 0,-0.383112 0.310625,-0.693726 0.693749,-0.693726 h 0.03187 c 0.383125,0 0.69375,0.310614 0.69375,0.693726 z m 4.417182,1.739317 c 0,0.519671 -0.42125,0.941216 -0.941249,0.941216 h -1.044061 c -0.519687,0 -0.941249,-0.421232 -0.941249,-0.941216 v -1.523386 c 0,-0.519671 0.421249,-0.941219 0.941249,-0.941219 h 1.044061 c 0.519687,0 0.941249,0.421236 0.941249,0.941219 z m 0.645312,-6.536344 c -0.280937,0.119996 -0.567187,0.241241 -0.923437,0.335926 0.0056,0.03219 0.01,0.06499 0.01,0.09875 v 0.02562 c 0,0.308427 -0.25,0.558419 -0.558436,0.558419 h -1.541878 c -0.308437,0 -0.558437,-0.249992 -0.558437,-0.558419 v -0.02562 c 0,-0.308428 0.25,-0.558419 0.558437,-0.558419 h 1.541874 c 0.229374,0 0.425937,0.138433 0.511874,0.336239 0.351249,-0.09281 0.633124,-0.212492 0.909686,-0.330614 0.385,-0.164369 0.779374,-0.332176 1.352499,-0.423423 -0.61125,-0.08812 -1.015311,-0.263428 -1.409061,-0.434985 -0.560937,-0.24468 -1.141562,-0.4971712 -2.33906,-0.5009215 -0.02625,0.2837405 -0.2625,0.5068585 -0.553124,0.5068585 h -1.541874 c -0.308437,0 -0.558436,-0.249992 -0.558436,-0.558419 V 9.716873 c 0,-0.3084271 0.249999,-0.5584186 0.558436,-0.5584186 h 1.541874 c 0.290937,0 0.527187,0.2234298 0.553124,0.507483 1.224061,0.00371 1.817186,0.2615537 2.389998,0.5115456 0.569061,0.248116 1.106873,0.482796 2.233747,0.482796 v 0.0013 c 0.0016,0 0.0035,0 0.005,0 0.02563,-0.284379 0.262187,-0.508122 0.553125,-0.508122 h 1.541873 c 0.290937,0 0.526873,0.223118 0.553124,0.507171 h 0.55875 c 0.02625,-0.284053 0.262186,-0.507171 0.553124,-0.507171 h 0.212812 c 0.308437,0 0.558437,0.249992 0.558437,0.558419 v 0.02562 c 0,0.308427 -0.25,0.558419 -0.558437,0.558419 H 51.6368 c -0.290938,0 -0.526875,-0.223118 -0.553124,-0.507171 h -0.558725 c -0.02625,0.284042 -0.262187,0.50716 -0.553125,0.50716 h -1.54156 c -0.290312,0 -0.52625,-0.222493 -0.553125,-0.506233 -1.075316,0.01061 -1.61469,0.239365 -2.183127,0.481857 z m 4.836558,6.196981 c 0,0.308426 -0.25,0.558418 -0.558438,0.558418 h -1.541873 c -0.308437,0 -0.558437,-0.249992 -0.558437,-0.558418 v -0.02563 c 0,-0.308427 0.25,-0.558419 0.558437,-0.558419 h 1.541873 c 0.308438,0 0.558438,0.249992 0.558438,0.558419 z m 2.360621,-2.668662 h -1.915935 c -0.383124,0 -0.693749,-0.310614 -0.693749,-0.693726 v -0.03187 c 0,-0.383112 0.310625,-0.693727 0.693749,-0.693727 h 1.915935 c 0.383126,0 0.69375,0.310615 0.69375,0.693727 v 0.03187 c 0,0.383112 -0.310624,0.693726 -0.69375,0.693726 z"
     inkscape:connector-curvature="0"
     style="fill:none;stroke-width:0.03124944" /><path
     style="fill:#692042;fill-opacity:1;stroke:#692042;stroke-width:0.3023622;stroke-miterlimit:4;stroke-dasharray:none;stroke-opacity:1"
     id="_x36_"
     d="m 49.972431,16.884758 h -1.542186 c -0.308437,0 -0.558437,0.249992 -0.558437,0.558419 v 0.02563 c 0,0.308426 0.25,0.558417 0.558437,0.558417 h 1.541873 c 0.308438,0 0.558438,-0.249991 0.558438,-0.558417 v -0.02563 c 0,-0.308738 -0.25,-0.558419 -0.558125,-0.558419 z"
     inkscape:connector-curvature="0" /><path
     style="fill:#692042;fill-opacity:1;stroke:#692042;stroke-width:0.3023622;stroke-miterlimit:4;stroke-dasharray:none;stroke-opacity:1"
     id="_x35_"
     d="m 44.107437,15.343247 h -1.044061 c -0.519687,0 -0.941249,0.421236 -0.941249,0.941219 v 1.523386 c 0,0.519671 0.421249,0.941216 0.941249,0.941216 h 1.044061 c 0.519687,0 0.941249,-0.421232 0.941249,-0.941216 v -1.523386 c 0,-0.519671 -0.42125,-0.941219 -0.941249,-0.941219 z"
     inkscape:connector-curvature="0" /><path
     style="fill:#692042;fill-opacity:1;stroke:#692042;stroke-width:0.3023622;stroke-miterlimit:4;stroke-dasharray:none;stroke-opacity:1"
     id="_x34_"
     d="m 48.430245,11.295882 h 1.541873 c 0.290937,0 0.526875,-0.223118 0.553125,-0.507171 h 0.558749 c 0.02625,0.284053 0.262188,0.507171 0.553124,0.507171 h 0.212813 c 0.308437,0 0.558437,-0.249992 0.558437,-0.558419 v -0.02562 c 0,-0.308427 -0.25,-0.558419 -0.558437,-0.558419 h -0.212813 c -0.290936,0 -0.526875,0.223118 -0.553124,0.507171 H 50.525243 C 50.498993,10.376537 50.263055,10.15342 49.972118,10.15342 h -1.541873 c -0.29125,0 -0.5275,0.223742 -0.553125,0.508108 -0.0016,0 -0.0035,0 -0.005,0 v -0.0013 c -1.126869,1.8e-5 -1.664681,-0.234349 -2.233743,-0.482778 -0.572836,-0.2499801 -1.16596,-0.5077842 -2.390021,-0.5115338 -0.02594,-0.2840533 -0.262188,-0.507483 -0.553125,-0.507483 h -1.542186 c -0.308437,0 -0.558436,0.2499915 -0.558436,0.5584186 v 0.025623 c 0,0.3084272 0.249999,0.5584192 0.558436,0.5584192 h 1.541874 c 0.290624,0 0.526874,-0.223118 0.553124,-0.5068587 1.197498,0.00371 1.778123,0.2562417 2.33906,0.5009207 0.39375,0.171557 0.797811,0.347177 1.409061,0.434986 -0.572812,0.09125 -0.967187,0.259054 -1.352499,0.423423 -0.276562,0.118122 -0.558437,0.237493 -0.909686,0.330615 -0.08594,-0.197806 -0.2825,-0.336238 -0.511874,-0.336238 h -1.541874 c -0.308437,0 -0.558437,0.249991 -0.558437,0.558418 v 0.02562 c 0,0.308428 0.25,0.558419 0.558437,0.558419 h 1.541874 c 0.308436,0 0.558437,-0.249991 0.558437,-0.558419 v -0.02562 c 0,-0.03375 -0.004,-0.06656 -0.01,-0.09875 0.356252,-0.09469 0.642502,-0.216243 0.923438,-0.335926 0.568437,-0.242492 1.107812,-0.471235 2.183123,-0.481859 0.02687,0.283428 0.262812,0.506233 0.553125,0.506233 z"
     inkscape:connector-curvature="0" /><path
     style="fill:#692042;fill-opacity:1;stroke:#692042;stroke-width:0.3023622;stroke-miterlimit:4;stroke-dasharray:none;stroke-opacity:1"
     id="_x33_"
     d="m 52.891177,13.3805 h -1.915935 c -0.383124,0 -0.693749,0.310615 -0.693749,0.693727 v 0.03187 c 0,0.383112 0.310625,0.693726 0.693749,0.693726 h 1.915935 c 0.383126,0 0.69375,-0.310614 0.69375,-0.693726 v -0.03187 c 0,-0.383112 -0.310624,-0.693727 -0.69375,-0.693727 z"
     inkscape:connector-curvature="0" /><path
     style="fill:#692042;fill-opacity:1;stroke:#692042;stroke-width:0.3023622;stroke-miterlimit:4;stroke-dasharray:none;stroke-opacity:1"
     id="_x32_"
     d="m 39.937754,13.458935 h -0.03187 c -0.383124,0 -0.693749,0.310614 -0.693749,0.693726 v 1.915874 c 0,0.383112 0.310625,0.693727 0.693749,0.693727 h 0.03187 c 0.383125,0 0.69375,-0.310615 0.69375,-0.693727 v -1.915874 c 0,-0.383112 -0.310625,-0.693726 -0.693749,-0.693726 z"
     inkscape:connector-curvature="0" /><path
     inkscape:export-ydpi="6.0000005"
     inkscape:export-xdpi="6.0000005"
     style="fill:#692042;fill-opacity:1;stroke:#692042;stroke-width:0.3023622;stroke-miterlimit:4;stroke-dasharray:none;stroke-opacity:1"
     id="_x31_"
     d="m 54.111489,13.97673 c 0,-2.620226 -1.266249,-4.9501474 -3.219059,-6.4104113 v 0 c -0.09094,-0.067812 -0.18375,-0.133433 -0.277499,-0.1974933 -0.03282,-0.022187 -0.06594,-0.044061 -0.09875,-0.065623 -0.06406,-0.042186 -0.128437,-0.083746 -0.19375,-0.1243709 -0.0375,-0.023436 -0.075,-0.046561 -0.112812,-0.069373 -0.07156,-0.042811 -0.143751,-0.08406 -0.216562,-0.1246833 -0.02876,-0.015937 -0.05688,-0.032811 -0.08562,-0.048436 0,0 0,0 0,0 v 0 C 49.069307,6.4826048 48.14087,6.176365 47.157121,6.0473069 c -0.03844,-0.005 -0.07687,-0.01031 -0.115312,-0.014687 -0.07062,-0.00812 -0.141563,-0.015625 -0.212813,-0.021875 -0.06219,-0.00563 -0.124374,-0.01 -0.186874,-0.014374 -0.05406,-0.00343 -0.108125,-0.00782 -0.1625,-0.01031 -0.1225,-0.00531 -0.245,-0.00907 -0.368124,-0.00907 -0.123126,0 -0.245626,0.00374 -0.3675,0.00938 -0.05437,0.00251 -0.108438,0.00656 -0.1625,0.01031 -0.0625,0.00407 -0.125,0.00875 -0.186875,0.014374 -0.07125,0.00625 -0.142187,0.01375 -0.213125,0.021875 -0.03875,0.00468 -0.07688,0.00969 -0.115312,0.014687 -3.918745,0.5137354 -6.954679,3.872373 -6.954679,7.9291131 0,4.14236 3.165308,7.559122 7.204054,7.960048 v 0 c 3.12e-4,0 3.12e-4,0 6.43e-4,0 0.130625,0.01281 0.262188,0.02309 0.394375,0.02974 0.132812,0.0061 0.26625,0.01047 0.400625,0.01047 0.09062,0 0.180624,-0.0035 0.270624,-0.0064 v 0 c 0.300937,-0.01024 0.598124,-0.03559 0.889687,-0.07844 v 0 c 0,0 0,0 0,0 0.07,-0.01047 0.139062,-0.02249 0.208125,-0.03435 0.04344,-0.007 0.08687,-0.01496 0.129999,-0.02348 0.07031,-0.01338 0.140312,-0.02748 0.21,-0.04284 0.03594,-0.0073 0.07156,-0.01652 0.107187,-0.02464 0.164062,-0.03814 0.326563,-0.08058 0.486562,-0.128745 0,0 0,0 0,0 v 0 c 3.292809,-0.992212 5.698119,-4.050545 5.698119,-7.661364 z m -6.827181,7.525372 c -0.281562,0.04371 -0.568437,0.07061 -0.859374,0.08252 v -1.371207 c 0,-0.239054 -0.150937,-0.441551 -0.362186,-0.520923 0.09594,-0.391862 0.226874,-0.690289 0.355936,-0.98247 0.168437,-0.380607 0.340312,-0.770595 0.43,-1.358702 0.09,0.587795 0.261249,0.984344 0.428749,1.371514 0.244063,0.564672 0.495937,1.14934 0.500937,2.340861 -0.245,0.02278 -0.444374,0.202497 -0.494062,0.438424 z m 1.0075,-0.229054 c -0.0925,-0.115934 -0.228751,-0.195306 -0.385313,-0.209681 -0.005,-1.218082 -0.262187,-1.81494 -0.511249,-2.391482 -0.247813,-0.573106 -0.481562,-1.114965 -0.4825,-2.237112 0.284062,-0.02625 0.507187,-0.262491 0.507187,-0.553107 v -1.541823 c 0,-0.290928 -0.223125,-0.526858 -0.507187,-0.553107 v -0.558731 c 0.284062,-0.02625 0.507187,-0.262179 0.507187,-0.553107 v -0.212805 c 0,-0.308428 -0.249999,-0.558419 -0.558437,-0.558419 h -0.02563 c -0.308437,0 -0.558436,0.249991 -0.558436,0.558419 v 0.212805 c 0,0.290928 0.223124,0.526858 0.507186,0.553107 v 0.558731 c -0.284063,0.02625 -0.507187,0.262179 -0.507187,0.553107 v 1.541823 c 0,0.290928 0.223124,0.526858 0.507187,0.553107 0,0.0019 0,0.0034 0,0.0053 h -3.11e-4 c 0,1.126842 -0.234375,1.657136 -0.482499,2.218365 -0.131875,0.298428 -0.265938,0.603417 -0.36375,1.004031 -0.02375,-0.0029 -0.04687,-0.0067 -0.07125,-0.0067 h -0.02563 c -0.308437,0 -0.558437,0.249993 -0.558437,0.558418 v 1.333397 c -3.810931,-0.415154 -6.78749,-3.651608 -6.78749,-7.570854 0,-3.625504 2.547185,-6.6654028 5.945618,-7.4291272 -0.03875,0.1024966 -0.06094,0.2134303 -0.06094,0.3296764 v 1.0227784 c 0,0.5196701 0.421249,0.9412184 0.941249,0.9412184 h 1.580623 c 0.519687,0 0.941249,-0.4212356 0.941249,-0.9412184 V 6.8772792 c 0,-0.1162461 -0.02219,-0.2268674 -0.06094,-0.3296764 0.648437,0.1456201 1.265312,0.37405 1.839999,0.6737274 l -0.3875,0.3874871 c -0.218124,0.2181176 -0.218124,0.5715434 0,0.7896612 l 0.01813,0.018121 c 0.218125,0.2181176 0.571561,0.2181176 0.789687,0 l 0.574999,-0.5749809 c 1.884685,1.3877662 3.110308,3.6205044 3.110308,6.1351084 0,3.441761 -2.295934,6.356356 -5.435931,7.296321 z"
     inkscape:connector-curvature="0" /></g>
</svg>