<?xml version="1.0" encoding="UTF-8" standalone="no"?>
<svg
   xmlns:dc="http://purl.org/dc/elements/1.1/"
   xmlns:cc="http://creativecommons.org/ns#"
   xmlns:rdf="http://www.w3.org/1999/02/22-rdf-syntax-ns#"
   xmlns:svg="http://www.w3.org/2000/svg"
   xmlns="http://www.w3.org/2000/svg"
   xmlns:sodipodi="http://sodipodi.sourceforge.net/DTD/sodipodi-0.dtd"
   xmlns:inkscape="http://www.inkscape.org/namespaces/inkscape"
   height="512pt"
   viewBox="0 0 512 512"
   width="512pt"
   version="1.1"
   id="svg52"
   sodipodi:docname="layout.svg"
   inkscape:version="0.92.4 (5da689c313, 2019-01-14)">
  <metadata
     id="metadata58">
    <rdf:RDF>
      <cc:Work
         rdf:about="">
        <dc:format>image/svg+xml</dc:format>
        <dc:type
           rdf:resource="http://purl.org/dc/dcmitype/StillImage" />
      </cc:Work>
    </rdf:RDF>
  </metadata>
  <defs
     id="defs56" />
  <sodipodi:namedview
     pagecolor="#ffffff"
     bordercolor="#666666"
     borderopacity="1"
     objecttolerance="10"
     gridtolerance="10"
     guidetolerance="10"
     inkscape:pageopacity="0"
     inkscape:pageshadow="2"
     inkscape:window-width="1920"
     inkscape:window-height="1025"
     id="namedview54"
     showgrid="false"
     showguides="true"
     inkscape:guide-bbox="true"
     inkscape:zoom="0.69140625"
     inkscape:cx="168.69515"
     inkscape:cy="235.66965"
     inkscape:window-x="1912"
     inkscape:window-y="-7"
     inkscape:window-maximized="1"
     inkscape:current-layer="svg52" />
  <path
     d="M 455.7386,277.74728 H 272.86488 c -5.97486,0 -10.8157,7.72224 -10.8157,17.25354 0,9.5223 4.84084,17.24453 10.8157,17.24453 H 455.7386 c 5.97486,0 10.81568,-7.72223 10.81568,-17.24453 0,-9.5313 -4.84082,-17.25354 -10.81568,-17.25354 z m 0,0"
     id="path8"
     inkscape:connector-curvature="0"
     style="stroke-width:1.82424903" />
  <path
     d="M 208.08288,143.00258 H 56.249408 c -4.960714,0 -8.979877,7.47943 -8.979877,16.70231 0,9.2316 4.019163,16.71103 8.979877,16.71103 H 208.08288 c 4.96072,0 8.97988,-7.47943 8.97988,-16.71103 0,-9.22288 -4.01916,-16.70231 -8.97988,-16.70231 z m 0,0"
     id="path10"
     inkscape:connector-curvature="0"
     style="stroke-width:1.63589191" />
  <path
     d="M 208.08288,212.28893 H 56.249408 c -4.960714,0 -8.979877,6.50817 -8.979877,14.54097 0,8.02522 4.019163,14.53338 8.979877,14.53338 H 208.08288 c 4.96072,0 8.97988,-6.50816 8.97988,-14.53338 0,-8.0328 -4.01916,-14.54097 -8.97988,-14.54097 z m 0,0"
     id="path14"
     inkscape:connector-curvature="0"
     style="stroke-width:1.5259831" />
  <path
     d="M 208.08288,281.57918 H 56.249408 c -4.960714,0 -8.979877,6.75099 -8.979877,15.07562 0,8.32463 4.019163,15.08348 8.979877,15.08348 H 208.08288 c 4.96072,0 8.97988,-6.75885 8.97988,-15.08348 0,-8.32463 -4.01916,-15.07562 -8.97988,-15.07562 z m 0,0"
     id="path18"
     inkscape:connector-curvature="0"
     style="stroke-width:1.55418921" />
  <path
     d="M 208.08288,349.78079 H 56.249408 c -4.960714,0 -8.979877,7.23661 -8.979877,16.16007 0,8.9319 4.019163,16.16852 8.979877,16.16852 H 208.08288 c 4.96072,0 8.97988,-7.23662 8.97988,-16.16852 0,-8.92346 -4.01916,-16.16007 -8.97988,-16.16007 z m 0,0"
     id="path22"
     inkscape:connector-curvature="0"
     style="stroke-width:1.60911858" />
  <path
     d="M 208.08288,423.40612 H 56.249408 c -4.960714,0 -8.979877,6.50816 -8.979877,14.54097 0,8.02522 4.019163,14.53338 8.979877,14.53338 H 208.08288 c 4.96072,0 8.97988,-6.50816 8.97988,-14.53338 0,-8.03281 -4.01916,-14.54097 -8.97988,-14.54097 z m 0,0"
     id="path26"
     inkscape:connector-curvature="0"
     style="stroke-width:1.5259831" />
  <path
     d="m479 0h-446c-18.195312 0-33 14.804688-33 33v446c0 18.195312 14.804688 33 33 33h223c4.136719 0 7.488281-3.351562 7.488281-7.488281 0-4.132813-3.351562-7.484375-7.488281-7.484375h-223c-9.941406 0-18.027344-8.085938-18.027344-18.027344v-376.984375h482.054688v376.984375c0 9.941406-8.085938 18.027344-18.027344 18.027344h-176.800781c-4.136719 0-7.484375 3.351562-7.484375 7.484375 0 4.136719 3.351562 7.488281 7.484375 7.488281h176.800781c18.195312 0 33-14.804688 33-33v-446c0-18.195312-14.804688-33-33-33zm18.027344 87.042969h-482.054688v-54.042969c0-9.941406 8.089844-18.027344 18.027344-18.027344h446c9.941406 0 18.027344 8.085938 18.027344 18.027344zm0 0"
     id="path30"
     style="stroke:#000000;stroke-opacity:1;fill:#000000;stroke-width:12.84974962;stroke-miterlimit:4;stroke-dasharray:none" />
  <path
     d="m 471.05469,156.56081 c 0,-10.60396 -6.94532,-19.22878 -15.48438,-19.22878 h -179.8125 c -8.53906,0 -15.48437,8.62482 -15.48437,19.22878 v 84.09435 c 0,10.60396 6.94531,19.22878 15.48437,19.22878 h 179.8125 c 8.53906,0 15.48438,-8.62967 15.48438,-19.22878 z m -166.78907,84.72981 40.2461,-49.95891 31.41015,43.96326 c 2.7461,3.84188 7.47657,4.19114 10.57032,0.78584 2.90234,-3.20156 3.32812,-8.57631 1.10156,-12.39877 l 14.97656,-18.59332 25.86719,36.2019 z m 151.81641,-0.63546 c 0,0.34926 -0.23047,0.63546 -0.51172,0.63546 h -7.11328 L 412.72266,191.2832 c -2.45313,-3.4344 -5.98438,-5.48631 -9.6836,-5.62214 -3.69922,-0.14552 -7.32031,1.64444 -9.9375,4.89451 l -15.4375,19.16086 -23,-32.19024 c -2.45703,-3.43441 -5.98437,-5.48632 -9.6875,-5.62214 -3.66797,-0.14553 -7.32031,1.64444 -9.9375,4.89451 l -51.95703,64.49206 h -7.32422 c -0.28515,0 -0.51172,-0.2862 -0.51172,-0.63546 v -84.09435 c 0,-0.34927 0.22657,-0.63547 0.51172,-0.63547 h 179.8125 c 0.28125,0 0.51172,0.2862 0.51172,0.63547 z m 0,0"
     id="path34"
     inkscape:connector-curvature="0"
     style="stroke-width:1.1143688" />
  <path
     d="m471.054688 460.140625v-116.640625c0-8.539062-6.945313-15.484375-15.484376-15.484375h-179.8125c-8.539062 0-15.484374 6.945313-15.484374 15.484375v116.640625c0 8.535156 6.945312 15.484375 15.484374 15.484375h179.8125c8.539063 0 15.484376-6.949219 15.484376-15.484375zm-195.808594 0v-116.640625c0-.285156.230468-.511719.511718-.511719h179.8125c.28125 0 .511719.226563.511719.511719v116.640625c0 .28125-.230469.511719-.511719.511719h-179.8125c-.28125 0-.511718-.230469-.511718-.511719zm0 0"
     id="path48" />
  <path
     d="m391.765625 389.277344-37.71875-21.777344c-4.535156-2.617188-9.949219-2.617188-14.484375 0-4.53125 2.617188-7.242188 7.304688-7.242188 12.539062v43.558594c0 5.234375 2.710938 9.921875 7.242188 12.539063 2.269531 1.308593 4.753906 1.964843 7.242188 1.964843 2.484374 0 4.972656-.652343 7.242187-1.964843l37.71875-21.777344c4.535156-2.617187 7.242187-7.304687 7.242187-12.539063 0-5.238281-2.707031-9.925781-7.242187-12.542968zm-44.46875 33.464844v-41.851563l36.246094 20.929687zm0 0"
     id="path50" />
</svg>
