<?xml version="1.0" encoding="UTF-8" standalone="no"?>
<!-- Generator: Adobe Illustrator 19.0.0, SVG Export Plug-In . SVG Version: 6.00 Build 0)  -->

<svg
   xmlns:dc="http://purl.org/dc/elements/1.1/"
   xmlns:cc="http://creativecommons.org/ns#"
   xmlns:rdf="http://www.w3.org/1999/02/22-rdf-syntax-ns#"
   xmlns:svg="http://www.w3.org/2000/svg"
   xmlns="http://www.w3.org/2000/svg"
   xmlns:sodipodi="http://sodipodi.sourceforge.net/DTD/sodipodi-0.dtd"
   xmlns:inkscape="http://www.inkscape.org/namespaces/inkscape"
   version="1.1"
   id="Capa_1"
   x="0px"
   y="0px"
   viewBox="0 0 28 31"
   xml:space="preserve"
   sodipodi:docname="MRC01.svg"
   inkscape:version="0.92.4 (5da689c313, 2019-01-14)"
   width="28"
   height="31"><metadata
   id="metadata43"><rdf:RDF><cc:Work
       rdf:about=""><dc:format>image/svg+xml</dc:format><dc:type
         rdf:resource="http://purl.org/dc/dcmitype/StillImage" /><dc:title></dc:title></cc:Work></rdf:RDF></metadata><defs
   id="defs41">
	

		
	</defs><sodipodi:namedview
   pagecolor="#ffffff"
   bordercolor="#666666"
   borderopacity="1"
   objecttolerance="10"
   gridtolerance="10"
   guidetolerance="10"
   inkscape:pageopacity="0"
   inkscape:pageshadow="2"
   inkscape:window-width="1920"
   inkscape:window-height="1025"
   id="namedview39"
   showgrid="false"
   inkscape:zoom="20.85965"
   inkscape:cx="20.952497"
   inkscape:cy="14.687625"
   inkscape:window-x="-8"
   inkscape:window-y="-8"
   inkscape:window-maximized="1"
   inkscape:current-layer="Capa_1" />
















<g
   id="g849"
   transform="matrix(0.06,0,0,0.06,-2.1497568,0.18412116)"><g
     id="g8">
</g><g
     id="g10">
</g><g
     id="g12">
</g><g
     id="g14">
</g><g
     id="g16">
</g><g
     id="g18">
</g><g
     id="g20">
</g><g
     id="g22">
</g><g
     id="g24">
</g><g
     id="g26">
</g><g
     id="g28">
</g><g
     id="g30">
</g><g
     id="g32">
</g><g
     id="g34">
</g><g
     id="g36">
</g><g
     inkscape:export-ydpi="96"
     inkscape:export-xdpi="96"
     id="g4571"><path
       d="M 466.60745,302.478 369.68644,275.851 V 186 c 0,-15.948 -8.346,-29.974 -20.893,-37.969 C 336.93244,107.751 300.10644,80 257.68644,80 h -45 V 45 c 0,-8.271 6.729,-15 15,-15 0,-29.99999967796606 0,0 0,-29.99999967796606 -24.813,0 -45,20.18699967796606 -45,44.99999967796606 v 35 h -45 c -52.383001,0 -95.000004,42.617 -95.000004,95 v 182 c 0,85.467 69.533004,155 155.000004,155 34.835,0 68.337,-11.723 95.37,-32.824 l 0.604,1.843 c 6.076,18.53 23.26,30.98 42.761,30.98 h 106.52901 c 19.501,0 36.685,-12.45 42.76,-30.98 l 13.976,-42.623 V 345.87 c 0,-20.199 -13.603,-38.043 -33.079,-43.392 z M 238.68644,110 h 19 c 23.708,0 44.855,12.664 56.234,32.311 -19.63,4.839 -34.234,22.586 -34.234,43.689 v 48 h -41 z M 72.686439,175 c 0,-35.841 29.159001,-65 65.000001,-65 h 19 V 234 H 72.686439 Z M 197.68644,482 C 128.76144,482 72.686439,425.925 72.686439,357 V 264 H 186.68644 V 110 h 22 v 154 h 71 v 51.65 l -10.464,-10.465 c -8.5,-8.499 -19.8,-13.181 -31.82,-13.181 -12.02,0 -23.321,4.681 -31.82,13.181 -8.5,8.499 -13.181,19.8 -13.181,31.819 0,12.021 4.681,23.321 13.229,31.868 l 75.929,75.236 1.402,4.275 c -23.043,21.497 -53.469,33.617 -85.275,33.617 z m 272.00001,-48.396 -12.482,38.07 c -2.025,6.176 -7.753,10.326 -14.253,10.326 H 336.42144 c -6.5,0 -12.229,-4.15 -14.253,-10.326 l -14.355,-43.783 -81.019,-80.28 c -2.833,-2.832 -4.393,-6.599 -4.393,-10.605 0,-4.006 1.561,-7.773 4.394,-10.606 2.833,-2.833 6.6,-4.394 10.607,-4.394 4.006,0 7.773,1.561 10.606,4.394 l 61.678,61.678 V 186 c 0,-8.271 6.729,-15 15,-15 8.271,0 15,6.729 15,15 v 112.72 l 118.97401,32.686 c 6.492,1.784 11.026,7.731 11.026,14.465 z"
       id="path2"
       inkscape:connector-curvature="0"
       sodipodi:nodetypes="ccscscsccscssssccssccsccscscccsscccsssccccccccscscccsccsscccsssscsssccsc" /><path
       style="opacity:1;fill:#ff5555;fill-opacity:1;stroke:#000000;stroke-width:0.40183222;stroke-miterlimit:4;stroke-dasharray:none;stroke-opacity:0.94418604"
       d="m 238.69839,110.01194 19.73847,-0.89979 18.46136,2.43385 c 0,0 9.10126,2.31529 20.99983,11.62581 10.73288,8.39838 16.02239,19.13919 16.02239,19.13919 0,0 -9.10417,3.90383 -19.90293,12.38833 -10.3858,8.16004 -14.01458,25.18792 -14.01458,25.18792 L 279.68644,234 l -40.98805,0.24709 z"
       id="rect4566"
       inkscape:connector-curvature="0"
       sodipodi:nodetypes="cccscscccc" /></g><path
     sodipodi:nodetypes="cccccc"
     inkscape:connector-curvature="0"
     id="path829"
     d="M 156.68644,110 V 234 H 72.686439 l -0.550846,-70.20339 c 7.583064,-25.26779 22.640994,-44.12854 50.440677,-52.0678 10.2787,-3.85035 20.97353,-2.65569 34.11017,-1.72881 z"
     style="fill:#f2f2f2;stroke:#000000;stroke-width:1px;stroke-linecap:butt;stroke-linejoin:miter;stroke-opacity:1" /></g></svg>