<?xml version="1.0" encoding="UTF-8" standalone="no"?>
<svg
   xmlns:dc="http://purl.org/dc/elements/1.1/"
   xmlns:cc="http://creativecommons.org/ns#"
   xmlns:rdf="http://www.w3.org/1999/02/22-rdf-syntax-ns#"
   xmlns:svg="http://www.w3.org/2000/svg"
   xmlns="http://www.w3.org/2000/svg"
   xmlns:sodipodi="http://sodipodi.sourceforge.net/DTD/sodipodi-0.dtd"
   xmlns:inkscape="http://www.inkscape.org/namespaces/inkscape"
   height="32pt"
   viewBox="0 0 32 32"
   width="32pt"
   version="1.1"
   id="svg52"
   sodipodi:docname="content.svg"
   inkscape:version="0.92.4 (5da689c313, 2019-01-14)">
  <metadata
     id="metadata58">
    <rdf:RDF>
      <cc:Work
         rdf:about="">
        <dc:format>image/svg+xml</dc:format>
        <dc:type
           rdf:resource="http://purl.org/dc/dcmitype/StillImage" />
        <dc:title></dc:title>
      </cc:Work>
    </rdf:RDF>
  </metadata>
  <defs
     id="defs56" />
  <sodipodi:namedview
     pagecolor="#ffffff"
     bordercolor="#666666"
     borderopacity="1"
     objecttolerance="10"
     gridtolerance="10"
     guidetolerance="10"
     inkscape:pageopacity="0"
     inkscape:pageshadow="2"
     inkscape:window-width="1920"
     inkscape:window-height="1025"
     id="namedview54"
     showgrid="false"
     showguides="true"
     inkscape:guide-bbox="true"
     inkscape:zoom="15.644737"
     inkscape:cx="21.917383"
     inkscape:cy="25.509233"
     inkscape:window-x="1912"
     inkscape:window-y="-7"
     inkscape:window-maximized="1"
     inkscape:current-layer="svg52" />
  <path
     d="m 28.135886,17.439559 h -10.94388 c -0.357557,0 -0.647253,0.456351 -0.647253,1.019609 0,0.562726 0.289696,1.019077 0.647253,1.019077 h 10.94388 c 0.357558,0 0.647254,-0.456351 0.647254,-1.019077 0,-0.563258 -0.289696,-1.019609 -0.647254,-1.019609 z m 0,0"
     id="path8"
     inkscape:connector-curvature="0"
     style="stroke-width:0.10848552" />
  <path
     d="M 13.315199,9.4767363 H 4.2288904 c -0.2968679,0 -0.5373906,0.4420008 -0.5373906,0.9870337 0,0.545548 0.2405227,0.987549 0.5373906,0.987549 h 9.0863086 c 0.296869,0 0.537392,-0.442001 0.537392,-0.987549 0,-0.5450329 -0.240523,-0.9870337 -0.537392,-0.9870337 z m 0,0"
     id="path10"
     inkscape:connector-curvature="0"
     style="stroke-width:0.0972842" />
  <path
     d="M 13.315199,13.571257 H 4.2288904 c -0.2968679,0 -0.5373906,0.384605 -0.5373906,0.859308 0,0.474255 0.2405227,0.858859 0.5373906,0.858859 h 9.0863086 c 0.296869,0 0.537392,-0.384604 0.537392,-0.858859 0,-0.474703 -0.240523,-0.859308 -0.537392,-0.859308 z m 0,0"
     id="path14"
     inkscape:connector-curvature="0"
     style="stroke-width:0.09074806" />
  <path
     d="M 13.315199,17.666008 H 4.2288904 c -0.2968679,0 -0.5373906,0.398954 -0.5373906,0.890903 0,0.491948 0.2405227,0.891369 0.5373906,0.891369 h 9.0863086 c 0.296869,0 0.537392,-0.399421 0.537392,-0.891369 0,-0.491949 -0.240523,-0.890903 -0.537392,-0.890903 z m 0,0"
     id="path18"
     inkscape:connector-curvature="0"
     style="stroke-width:0.09242544" />
  <path
     d="M 13.315199,21.696425 H 4.2288904 c -0.2968679,0 -0.5373906,0.427652 -0.5373906,0.95499 0,0.527836 0.2405227,0.955489 0.5373906,0.955489 h 9.0863086 c 0.296869,0 0.537392,-0.427653 0.537392,-0.955489 0,-0.527338 -0.240523,-0.95499 -0.537392,-0.95499 z m 0,0"
     id="path22"
     inkscape:connector-curvature="0"
     style="stroke-width:0.09569202" />
  <path
     d="M 13.315199,26.047361 H 4.2288904 c -0.2968679,0 -0.5373906,0.384603 -0.5373906,0.859307 0,0.474256 0.2405227,0.858859 0.5373906,0.858859 h 9.0863086 c 0.296869,0 0.537392,-0.384603 0.537392,-0.858859 0,-0.474704 -0.240523,-0.859307 -0.537392,-0.859307 z m 0,0"
     id="path26"
     inkscape:connector-curvature="0"
     style="stroke-width:0.09074806" />
  <path
     d="M 29.527938,1.0259088 H 2.8375543 c -1.0888781,0 -1.97484793,0.8748915 -1.97484793,1.9501536 V 29.332715 c 0,1.075264 0.88596983,1.950156 1.97484793,1.950156 H 16.182747 c 0.247556,0 0.448126,-0.198062 0.448126,-0.442524 0,-0.244231 -0.20057,-0.442294 -0.448126,-0.442294 H 2.8375543 c -0.5949314,0 -1.0788259,-0.477844 -1.0788259,-1.065338 V 7.054586 H 30.606765 v 22.278129 c 0,0.587494 -0.483893,1.065338 -1.078827,1.065338 H 18.947489 c -0.247558,0 -0.447894,0.198063 -0.447894,0.442294 0,0.244462 0.20057,0.442524 0.447894,0.442524 h 10.580449 c 1.08888,0 1.974851,-0.874892 1.974851,-1.950156 V 2.9760624 c 0,-1.0752621 -0.885971,-1.9501536 -1.974851,-1.9501536 z m 1.078827,5.1438587 H 1.7587284 V 2.9760624 c 0,-0.5874917 0.4841284,-1.0653337 1.0788259,-1.0653337 H 29.527938 c 0.594934,0 1.078827,0.477842 1.078827,1.0653337 z m 0,0"
     id="path30"
     style="fill:#000000;stroke:#000000;stroke-width:0.76415652;stroke-miterlimit:4;stroke-dasharray:none;stroke-opacity:1"
     inkscape:connector-curvature="0" />
  <path
     d="m 29.052459,10.277969 c 0,-0.6266483 -0.415634,-1.1363379 -0.926644,-1.1363379 H 17.365131 c -0.51101,0 -0.926645,0.5096896 -0.926645,1.1363379 v 4.969608 c 0,0.626648 0.415635,1.136337 0.926645,1.136337 h 10.760684 c 0.51101,0 0.926644,-0.509976 0.926644,-1.136337 z m -9.981309,5.007162 2.408486,-2.952355 1.879702,2.598037 c 0.164339,0.227039 0.447428,0.247679 0.632572,0.04644 0.173687,-0.189198 0.199168,-0.506821 0.06593,-0.732713 l 0.896257,-1.098783 1.547994,2.139374 z m 9.085289,-0.03755 c 0,0.02064 -0.01381,0.03755 -0.03064,0.03755 H 27.700103 L 25.56162,12.329909 c -0.146799,-0.202956 -0.358124,-0.324215 -0.579501,-0.332242 -0.221374,-0.0086 -0.438078,0.09718 -0.594698,0.289244 l -0.923839,1.132322 -1.376412,-1.902301 c -0.147042,-0.202959 -0.358132,-0.324218 -0.579742,-0.332244 -0.219507,-0.0086 -0.438076,0.09718 -0.594698,0.289243 l -3.109313,3.8112 h -0.438309 c -0.01706,0 -0.03063,-0.01691 -0.03063,-0.03755 v -4.969609 c 0,-0.02064 0.01356,-0.03756 0.03063,-0.03756 H 28.12579 c 0.01684,0 0.03065,0.01691 0.03065,0.03756 z m 0,0"
     id="path34"
     inkscape:connector-curvature="0"
     style="stroke-width:0.06626994" />
  <path
     d="m 29.052459,28.21821 v -6.892953 c 0,-0.504621 -0.415634,-0.915058 -0.926644,-0.915058 H 17.365131 c -0.51101,0 -0.926645,0.410437 -0.926645,0.915058 v 6.892953 c 0,0.50439 0.415635,0.915057 0.926645,0.915057 h 10.760684 c 0.51101,0 0.926644,-0.410667 0.926644,-0.915057 z m -11.71795,0 v -6.892953 c 0,-0.01685 0.01379,-0.03023 0.03061,-0.03023 h 10.760683 c 0.01685,0 0.03065,0.01338 0.03065,0.03023 v 6.892953 c 0,0.01662 -0.01381,0.03024 -0.03065,0.03024 H 17.365128 c -0.01682,0 -0.03061,-0.01362 -0.03061,-0.03024 z m 0,0"
     id="path48"
     inkscape:connector-curvature="0"
     style="stroke-width:0.0594686" />
  <path
     d="m 24.307493,24.030499 -2.257237,-1.286947 c -0.271402,-0.154665 -0.595401,-0.154665 -0.866802,0 -0.271169,0.154666 -0.433402,0.431676 -0.433402,0.741005 v 2.574123 c 0,0.309328 0.162233,0.586338 0.433402,0.741002 0.135817,0.07734 0.284491,0.116115 0.433401,0.116115 0.148674,0 0.297582,-0.03855 0.433401,-0.116115 l 2.257237,-1.286945 c 0.2714,-0.154665 0.433399,-0.431675 0.433399,-0.741004 0,-0.30956 -0.161999,-0.58657 -0.433399,-0.741234 z m -2.661185,1.977626 v -2.473246 l 2.169108,1.236854 z m 0,0"
     id="path50"
     inkscape:connector-curvature="0"
     style="stroke-width:0.0594686" />
</svg>
